<?xml version="1.0" encoding="UTF-8"?>
<svg id="Layer_1" xmlns="http://www.w3.org/2000/svg" version="1.1" viewBox="0 0 200 77.54">
  <!-- Generator: Adobe Illustrator 30.2.1, SVG Export Plug-In . SVG Version: 2.1.1 Build 1)  -->
  <defs>
    <style>
      .st0 {
        fill: #231f20;
      }

      .st1 {
        fill: #fff;
      }

      .st2 {
        fill: #2cabe2;
      }

      .st3 {
        fill: #e8078a;
      }

      .st4 {
        fill: #faed1f;
      }
    </style>
  </defs>
  <g>
    <g>
      <g>
        <path d="M474.86,45.61c-.69.34-2.23.71-4.25.71-5.72,0-8.67-3.56-8.67-8.27,0-5.65,4.03-8.79,9.03-8.79,1.94,0,3.41.39,4.07.74l-.76,2.97c-.76-.32-1.82-.61-3.14-.61-2.97,0-5.28,1.79-5.28,5.47,0,3.31,1.96,5.4,5.3,5.4,1.13,0,2.38-.25,3.12-.54l.56,2.92Z"/>
        <path d="M488.58,39.94c0,4.39-3.12,6.41-6.33,6.41-3.51,0-6.21-2.31-6.21-6.19s2.55-6.36,6.41-6.36,6.14,2.53,6.14,6.14ZM479.89,40.06c0,2.06.86,3.61,2.45,3.61,1.45,0,2.38-1.45,2.38-3.61,0-1.79-.69-3.61-2.38-3.61-1.79,0-2.45,1.84-2.45,3.61Z"/>
        <path d="M490.89,28.64h3.73v17.43h-3.73v-17.43Z"/>
        <path d="M509.5,39.94c0,4.39-3.12,6.41-6.33,6.41-3.51,0-6.21-2.31-6.21-6.19s2.55-6.36,6.41-6.36,6.14,2.53,6.14,6.14ZM500.81,40.06c0,2.06.86,3.61,2.45,3.61,1.45,0,2.38-1.45,2.38-3.61,0-1.79-.69-3.61-2.38-3.61-1.79,0-2.45,1.84-2.45,3.61Z"/>
        <path d="M523.12,42.22c0,1.57.05,2.85.1,3.85h-3.24l-.17-1.69h-.07c-.47.74-1.6,1.96-3.76,1.96-2.43,0-4.22-1.52-4.22-5.23v-7.05h3.76v6.46c0,1.74.56,2.8,1.87,2.8,1.03,0,1.62-.71,1.87-1.3.1-.22.12-.52.12-.81v-7.14h3.76v8.15Z"/>
        <path d="M526.12,38.02c0-1.77-.05-2.92-.1-3.95h3.22l.12,2.21h.1c.61-1.74,2.09-2.48,3.24-2.48.34,0,.52,0,.79.05v3.51c-.27-.05-.59-.1-1.01-.1-1.37,0-2.31.74-2.55,1.89-.05.25-.07.54-.07.83v6.09h-3.73v-8.05Z"/>
        <path d="M536.53,46.07v-9.25h-1.57v-2.75h1.57v-.54c0-1.35.69-2.87,1.84-3.8,1.15-.93,2.65-1.35,4.57-1.35,1.79,0,3.41.34,4.62,1.01v16.69h-3.73v-14.68c-.29-.15-.74-.25-1.42-.25-1.5,0-2.14,1.08-2.14,2.43v.49h2.16v2.75h-2.14v9.25h-3.76Z"/>
        <path d="M553.42,41.26c.12,1.55,1.64,2.28,3.39,2.28,1.28,0,2.31-.17,3.31-.49l.49,2.53c-1.23.49-2.72.74-4.35.74-4.07,0-6.41-2.36-6.41-6.11,0-3.04,1.89-6.41,6.06-6.41,3.88,0,5.35,3.02,5.35,5.99,0,.64-.07,1.2-.12,1.47h-7.73ZM557.81,38.71c0-.91-.39-2.43-2.11-2.43-1.57,0-2.21,1.42-2.31,2.43h4.42Z"/>
        <path d="M566.06,34.07l1.18,1.99c.34.61.66,1.23.98,1.79h.05c.32-.64.61-1.25.93-1.84l1.06-1.94h4.05l-3.95,5.72,4,6.28h-4.22l-1.2-2.16c-.34-.59-.64-1.2-.93-1.82h-.07c-.29.64-.61,1.23-.91,1.82l-1.13,2.16h-4.1l4.07-6.11-3.98-5.89h4.17Z"/>
      </g>
      <g>
        <path d="M488.34,48.85v7.62h-.98v-7.62h.98Z"/>
        <path d="M489.91,52.48c0-.57-.01-1.03-.05-1.48h.88l.06.9h.02c.27-.52.9-1.03,1.81-1.03.76,0,1.93.45,1.93,2.33v3.27h-1v-3.15c0-.88-.33-1.62-1.27-1.62-.66,0-1.16.46-1.33,1.02-.05.12-.07.29-.07.46v3.29h-1v-3.99Z"/>
        <path d="M496.49,53.51h.02c.14-.19.33-.43.49-.62l1.61-1.89h1.2l-2.11,2.25,2.41,3.22h-1.21l-1.89-2.62-.51.57v2.06h-.98v-8.03h.98v5.07Z"/>
        <path d="M500.67,55.46c.29.19.81.4,1.31.4.72,0,1.06-.36,1.06-.81,0-.47-.28-.73-1.02-1.01-.98-.35-1.45-.89-1.45-1.55,0-.88.71-1.61,1.89-1.61.55,0,1.04.16,1.35.34l-.25.72c-.21-.14-.61-.32-1.12-.32-.59,0-.92.34-.92.75,0,.45.33.66,1.04.93.95.36,1.44.84,1.44,1.65,0,.96-.75,1.64-2.05,1.64-.6,0-1.15-.15-1.54-.37l.25-.76Z"/>
        <path d="M513.39,56.47c-.21-.21-.42-.43-.71-.75-.66.61-1.39.87-2.23.87-1.48,0-2.34-1-2.34-2.14,0-1.04.62-1.75,1.49-2.23v-.03c-.4-.5-.63-1.05-.63-1.59,0-.93.67-1.88,1.93-1.88.95,0,1.68.63,1.68,1.62,0,.8-.46,1.44-1.67,2.04v.03c.64.75,1.37,1.58,1.85,2.13.35-.53.59-1.27.73-2.23h.9c-.2,1.2-.53,2.15-1.1,2.82.41.43.8.86,1.26,1.35h-1.18ZM512.19,55.16c-.45-.5-1.3-1.42-2.15-2.4-.41.26-.98.75-.98,1.55,0,.87.64,1.54,1.56,1.54.66,0,1.21-.29,1.57-.69ZM509.88,50.51c0,.54.25.96.58,1.37.77-.44,1.27-.85,1.27-1.49,0-.46-.26-.98-.88-.98s-.96.52-.96,1.11Z"/>
        <path d="M523.64,56.22c-.36.18-1.09.36-2.01.36-2.15,0-3.77-1.36-3.77-3.86s1.62-4,3.98-4c.95,0,1.55.2,1.81.34l-.24.8c-.37-.18-.9-.32-1.54-.32-1.79,0-2.97,1.14-2.97,3.14,0,1.87,1.07,3.06,2.93,3.06.6,0,1.21-.12,1.61-.32l.2.78Z"/>
        <path d="M530.12,53.69c0,2.02-1.4,2.91-2.73,2.91-1.48,0-2.62-1.09-2.62-2.82,0-1.83,1.2-2.91,2.71-2.91s2.63,1.14,2.63,2.82ZM525.77,53.75c0,1.2.69,2.1,1.66,2.1s1.66-.89,1.66-2.13c0-.93-.46-2.1-1.64-2.1s-1.68,1.09-1.68,2.13Z"/>
        <path d="M534.4,56.47l-.08-.69h-.03c-.31.43-.89.81-1.67.81-1.11,0-1.67-.78-1.67-1.57,0-1.32,1.18-2.05,3.29-2.04v-.11c0-.45-.12-1.27-1.24-1.27-.51,0-1.04.16-1.42.41l-.23-.66c.45-.29,1.11-.49,1.8-.49,1.67,0,2.08,1.14,2.08,2.24v2.05c0,.47.02.94.09,1.31h-.9ZM534.25,53.68c-1.09-.02-2.32.17-2.32,1.23,0,.64.43.95.94.95.71,0,1.16-.45,1.32-.92.03-.1.06-.22.06-.32v-.95Z"/>
        <path d="M537.75,49.43v1.57h1.42v.76h-1.42v2.95c0,.68.19,1.06.75,1.06.26,0,.45-.03.58-.07l.05.75c-.19.08-.5.14-.88.14-.46,0-.84-.15-1.07-.42-.28-.29-.38-.78-.38-1.42v-2.99h-.85v-.76h.85v-1.31l.97-.26Z"/>
        <path d="M540.72,49.46c.01.34-.24.61-.63.61-.35,0-.6-.27-.6-.61s.26-.62.62-.62.61.27.61.62ZM539.61,56.47v-5.47h1v5.47h-1Z"/>
        <path d="M541.58,52.48c0-.57-.01-1.03-.05-1.48h.88l.06.9h.02c.27-.52.9-1.03,1.81-1.03.76,0,1.93.45,1.93,2.33v3.27h-1v-3.15c0-.88-.33-1.62-1.27-1.62-.66,0-1.16.46-1.33,1.02-.05.12-.07.29-.07.46v3.29h-1v-3.99Z"/>
        <path d="M551.89,51c-.02.4-.05.84-.05,1.5v3.18c0,1.26-.25,2.02-.78,2.5-.53.5-1.3.66-1.99.66s-1.38-.16-1.82-.45l.25-.76c.36.23.93.43,1.61.43,1.02,0,1.76-.53,1.76-1.91v-.61h-.02c-.31.51-.89.92-1.74.92-1.36,0-2.33-1.15-2.33-2.67,0-1.85,1.21-2.91,2.46-2.91.95,0,1.47.5,1.71.95h.02l.05-.83h.87ZM550.86,53.16c0-.17-.01-.32-.06-.45-.18-.58-.67-1.05-1.39-1.05-.95,0-1.63.8-1.63,2.07,0,1.07.54,1.97,1.62,1.97.61,0,1.16-.38,1.38-1.02.06-.17.08-.36.08-.53v-.98Z"/>
        <path d="M553.14,55.46c.29.19.81.4,1.31.4.72,0,1.06-.36,1.06-.81,0-.47-.28-.73-1.02-1.01-.98-.35-1.45-.89-1.45-1.55,0-.88.71-1.61,1.89-1.61.55,0,1.04.16,1.35.34l-.25.72c-.21-.14-.61-.32-1.12-.32-.59,0-.92.34-.92.75,0,.45.33.66,1.04.93.95.36,1.44.84,1.44,1.65,0,.96-.75,1.64-2.05,1.64-.6,0-1.15-.15-1.54-.37l.25-.76Z"/>
        <path d="M560.63,48.85h.98v6.8h3.26v.83h-4.24v-7.62Z"/>
        <path class="st0" d="M567.07,49.31v1.6s1.46-.01,1.46-.01v.77s-1.44.01-1.44.01l.02,3c0,.69.2,1.08.77,1.08.26,0,.46-.04.59-.07l.05.76c-.2.08-.5.14-.9.15-.47,0-.85-.14-1.1-.42-.29-.3-.4-.79-.4-1.45l-.02-3.04h-.86s0-.76,0-.76h.86s-.01-1.34-.01-1.34l.99-.27Z"/>
        <path class="st0" d="M574.39,48.25l.05,6.73c0,.5.02,1.06.06,1.44h-.91s-.05-.96-.05-.96h-.02c-.31.62-.98,1.1-1.89,1.11-1.35.01-2.39-1.12-2.4-2.81-.03-1.85,1.11-3,2.47-3.01.85,0,1.43.39,1.69.84h.02l-.03-3.33h1.01ZM573.41,53.13c0-.13-.01-.3-.05-.42-.16-.64-.71-1.17-1.47-1.16-1.05,0-1.66.93-1.65,2.17,0,1.13.57,2.05,1.66,2.04.68,0,1.3-.46,1.47-1.22.03-.14.04-.28.04-.44v-.97Z"/>
      </g>
    </g>
    <g>
      <path d="M423.82,4.48c5.2,1.34,7.94,2.51,12.29,5.81,15.64,11.86,17.68,34.57,4.35,48.99-11.55,12.49-30.28,14.72-43.94,4.76-11.24-8.2-16.2-19.55-13.56-33.34,2.62-13.72,10.65-22.15,24.04-26.06,2.98-.87,5.88-1.18,8.9-1.18,1.9,0,5.13.32,7.92,1.02ZM416.01,5.57c-17.52-.04-31.5,13.75-31.54,31.1-.04,17.3,13.87,31.34,31.1,31.38,17.36.04,31.53-13.9,31.64-31.14.11-17.13-13.99-31.3-31.2-31.34Z"/>
      <path class="st3" d="M403.34,56.35c-.12-2.49,1.08-4.57,2.74-6.39,3.3-3.61,6.71-7.13,9.14-11.44.42-.74,1.07-1.15,1.44-.12,1.82,5.09,6.23,8.07,9.52,11.96,2.99,3.54,3.05,7.76.34,11.43-5.28,7.15-17.36,6.84-21.87-.57-1.07-1.75-1.33-2.69-1.31-4.87Z"/>
      <path d="M415.64,6.65c5.27.22,9.22,2.22,11.72,6.55,1.91,3.29,1.34,6.55-.71,9.62-.83,1.25-1.84,2.36-3.02,3.26-2.98,2.28-5.11,5.19-6.61,8.59-.21.48-.34,1.2-1,1.21-.65.01-.8-.69-1.07-1.16-2.28-4.04-5.47-7.32-8.61-10.66-6.54-6.94-1.68-15.13,5.96-16.97,1.19-.29,2.45-.33,3.35-.44Z"/>
      <path class="st4" d="M431.51,25.27c5.23,0,9.37,2.02,11.92,6.72,1.79,3.3,1.12,6.94-2.01,10.16-3.37,3.48-6.61,7.02-9.04,11.25-.61,1.06-1.19.91-1.72-.08-.56-1.04-1.15-2.05-1.67-3.1-1.51-3.04-4.27-4.92-6.57-7.24-5.1-5.13-4.27-11.87,1.92-15.58,2.9-1.74,4.17-2.11,7.17-2.13Z"/>
      <path class="st2" d="M400.26,25.3c3.65.11,7.06,1.32,9.73,4.44,2.73,3.19,3.04,7.54.63,10.97-1.51,2.14-3.54,3.8-5.22,5.79-1.76,2.1-3.42,4.25-4.77,6.62-.64,1.12-1.19,1.51-1.83.09-1.69-3.75-4.27-6.73-7.42-9.38-2.13-1.79-3.66-4.07-4.04-7.08-.74-5.89,5.59-11.23,11.51-11.44.37-.01.74,0,1.41,0Z"/>
    </g>
  </g>
  <g>
    <g>
      <path class="st1" d="M93.57,43.16c-.53.27-1.73.55-3.28.55-4.42,0-6.7-2.75-6.7-6.39,0-4.36,3.11-6.79,6.98-6.79,1.5,0,2.64.3,3.15.57l-.59,2.29c-.59-.25-1.4-.47-2.43-.47-2.29,0-4.08,1.38-4.08,4.23,0,2.56,1.52,4.17,4.1,4.17.87,0,1.84-.19,2.41-.42l.44,2.26Z"/>
      <path class="st1" d="M104.17,38.78c0,3.39-2.41,4.95-4.89,4.95-2.71,0-4.8-1.78-4.8-4.78s1.97-4.91,4.95-4.91,4.74,1.95,4.74,4.74ZM97.45,38.87c0,1.59.66,2.79,1.9,2.79,1.12,0,1.84-1.12,1.84-2.79,0-1.38-.53-2.79-1.84-2.79-1.38,0-1.9,1.42-1.9,2.79Z"/>
      <path class="st1" d="M105.95,30.05h2.88v13.47h-2.88v-13.47Z"/>
      <path class="st1" d="M120.33,38.78c0,3.39-2.41,4.95-4.89,4.95-2.71,0-4.8-1.78-4.8-4.78s1.97-4.91,4.95-4.91,4.74,1.95,4.74,4.74ZM113.61,38.87c0,1.59.66,2.79,1.9,2.79,1.12,0,1.84-1.12,1.84-2.79,0-1.38-.53-2.79-1.84-2.79-1.38,0-1.9,1.42-1.9,2.79Z"/>
      <path class="st1" d="M130.85,40.54c0,1.21.04,2.2.08,2.98h-2.5l-.13-1.31h-.06c-.36.57-1.23,1.52-2.9,1.52-1.88,0-3.26-1.18-3.26-4.04v-5.44h2.9v4.99c0,1.35.44,2.16,1.44,2.16.8,0,1.25-.55,1.44-1.01.08-.17.09-.4.09-.63v-5.52h2.9v6.3Z"/>
      <path class="st1" d="M133.17,37.3c0-1.37-.04-2.26-.08-3.05h2.48l.09,1.71h.08c.47-1.35,1.61-1.92,2.5-1.92.27,0,.4,0,.61.04v2.71c-.21-.04-.46-.08-.78-.08-1.06,0-1.78.57-1.97,1.46-.04.19-.06.42-.06.64v4.7h-2.88v-6.22Z"/>
      <path class="st1" d="M141.21,43.52v-7.15h-1.21v-2.12h1.21v-.42c0-1.04.53-2.22,1.42-2.94.89-.72,2.05-1.04,3.53-1.04,1.38,0,2.64.27,3.57.78v12.9h-2.88v-11.34c-.23-.11-.57-.19-1.1-.19-1.16,0-1.65.83-1.65,1.88v.38h1.67v2.12h-1.65v7.15h-2.9Z"/>
      <path class="st1" d="M154.26,39.8c.09,1.19,1.27,1.76,2.62,1.76.99,0,1.78-.13,2.56-.38l.38,1.95c-.95.38-2.11.57-3.36.57-3.15,0-4.95-1.82-4.95-4.72,0-2.35,1.46-4.95,4.68-4.95,3,0,4.13,2.33,4.13,4.63,0,.49-.06.93-.09,1.14h-5.97ZM157.65,37.83c0-.7-.3-1.88-1.63-1.88-1.21,0-1.71,1.1-1.78,1.88h3.41Z"/>
      <path class="st1" d="M164.03,34.25l.91,1.54c.27.47.51.95.76,1.38h.04c.25-.49.47-.97.72-1.42l.82-1.5h3.13l-3.05,4.42,3.09,4.86h-3.26l-.93-1.67c-.27-.46-.49-.93-.72-1.4h-.06c-.23.49-.47.95-.7,1.4l-.87,1.67h-3.17l3.15-4.72-3.07-4.55h3.22Z"/>
    </g>
    <g>
      <path class="st1" d="M103.98,45.67v5.89h-.76v-5.89h.76Z"/>
      <path class="st1" d="M105.19,48.47c0-.44,0-.8-.03-1.14h.68l.04.7h.02c.21-.4.7-.8,1.4-.8.59,0,1.49.35,1.49,1.8v2.52h-.77v-2.44c0-.68-.25-1.25-.98-1.25-.51,0-.9.36-1.03.79-.03.1-.05.23-.05.36v2.54h-.77v-3.08Z"/>
      <path class="st1" d="M110.28,49.27h.02c.1-.15.25-.33.38-.48l1.24-1.46h.93l-1.63,1.74,1.86,2.49h-.93l-1.46-2.03-.39.44v1.59h-.76v-6.2h.76v3.91Z"/>
      <path class="st1" d="M113.51,50.77c.23.15.63.31,1.01.31.56,0,.82-.28.82-.63,0-.37-.22-.57-.79-.78-.76-.27-1.12-.69-1.12-1.2,0-.68.55-1.24,1.46-1.24.43,0,.8.12,1.04.26l-.19.56c-.17-.1-.47-.24-.86-.24-.45,0-.71.26-.71.58,0,.35.25.51.8.72.73.28,1.11.65,1.11,1.28,0,.74-.58,1.27-1.58,1.27-.46,0-.89-.11-1.19-.29l.19-.59Z"/>
      <path class="st1" d="M123.34,51.55c-.17-.17-.32-.33-.55-.58-.51.47-1.07.67-1.72.67-1.14,0-1.81-.77-1.81-1.65,0-.8.48-1.35,1.15-1.72v-.03c-.31-.38-.49-.81-.49-1.23,0-.72.52-1.45,1.49-1.45.73,0,1.3.49,1.3,1.25,0,.62-.36,1.11-1.29,1.57v.03c.5.58,1.06,1.22,1.43,1.64.27-.41.45-.98.57-1.72h.7c-.16.93-.41,1.66-.85,2.18.31.33.62.66.97,1.04h-.91ZM122.41,50.54c-.35-.38-1-1.1-1.66-1.85-.31.2-.76.58-.76,1.2,0,.67.5,1.19,1.21,1.19.51,0,.93-.23,1.21-.53ZM120.62,46.95c0,.42.19.74.45,1.06.59-.34.98-.66.98-1.15,0-.36-.2-.76-.68-.76s-.74.4-.74.86Z"/>
      <path class="st1" d="M131.25,51.36c-.28.14-.84.28-1.56.28-1.66,0-2.91-1.05-2.91-2.98s1.25-3.09,3.08-3.09c.73,0,1.2.16,1.4.26l-.18.62c-.29-.14-.7-.24-1.19-.24-1.38,0-2.3.88-2.3,2.43,0,1.44.83,2.37,2.26,2.37.46,0,.93-.1,1.24-.24l.16.6Z"/>
      <path class="st1" d="M136.26,49.41c0,1.56-1.08,2.25-2.11,2.25-1.14,0-2.03-.84-2.03-2.18,0-1.42.93-2.25,2.1-2.25s2.04.88,2.04,2.18ZM132.9,49.45c0,.93.53,1.63,1.28,1.63s1.28-.69,1.28-1.64c0-.72-.36-1.63-1.27-1.63s-1.3.84-1.3,1.64Z"/>
      <path class="st1" d="M139.57,51.55l-.06-.53h-.03c-.24.33-.69.63-1.29.63-.86,0-1.29-.6-1.29-1.21,0-1.02.91-1.58,2.54-1.57v-.09c0-.35-.1-.98-.96-.98-.39,0-.8.12-1.1.31l-.17-.51c.35-.23.86-.38,1.39-.38,1.29,0,1.61.88,1.61,1.73v1.58c0,.37.02.73.07,1.01h-.7ZM139.45,49.4c-.84-.02-1.79.13-1.79.95,0,.5.33.73.73.73.55,0,.9-.35,1.02-.71.03-.08.04-.17.04-.24v-.73Z"/>
      <path class="st1" d="M142.15,46.11v1.21h1.1v.59h-1.1v2.28c0,.52.15.82.58.82.2,0,.35-.03.45-.05l.03.58c-.15.06-.38.1-.68.1-.36,0-.65-.11-.83-.32-.22-.23-.3-.6-.3-1.1v-2.31h-.66v-.59h.66v-1.01l.75-.2Z"/>
      <path class="st1" d="M144.45,46.14c0,.26-.18.47-.49.47-.27,0-.46-.21-.46-.47s.2-.48.48-.48.47.21.47.48ZM143.59,51.55v-4.23h.77v4.23h-.77Z"/>
      <path class="st1" d="M145.11,48.47c0-.44,0-.8-.03-1.14h.68l.04.7h.02c.21-.4.7-.8,1.4-.8.59,0,1.49.35,1.49,1.8v2.52h-.77v-2.44c0-.68-.25-1.25-.98-1.25-.51,0-.9.36-1.03.79-.03.1-.05.23-.05.36v2.54h-.77v-3.08Z"/>
      <path class="st1" d="M153.08,47.33c-.02.31-.03.65-.03,1.16v2.45c0,.97-.19,1.56-.6,1.93-.41.38-1,.51-1.54.51s-1.07-.12-1.41-.35l.19-.59c.28.17.72.33,1.24.33.79,0,1.36-.41,1.36-1.48v-.47h-.02c-.24.39-.69.71-1.35.71-1.05,0-1.8-.89-1.8-2.06,0-1.43.93-2.25,1.9-2.25.73,0,1.14.38,1.32.73h.02l.03-.64h.67ZM152.29,49c0-.13,0-.24-.04-.35-.14-.45-.52-.81-1.07-.81-.73,0-1.26.62-1.26,1.6,0,.83.42,1.52,1.25,1.52.47,0,.9-.3,1.07-.79.04-.13.06-.28.06-.41v-.76Z"/>
      <path class="st1" d="M154.04,50.77c.23.15.63.31,1.01.31.56,0,.82-.28.82-.63,0-.37-.22-.57-.79-.78-.76-.27-1.12-.69-1.12-1.2,0-.68.55-1.24,1.46-1.24.43,0,.8.12,1.04.26l-.19.56c-.17-.1-.47-.24-.86-.24-.45,0-.71.26-.71.58,0,.35.25.51.8.72.73.28,1.11.65,1.11,1.28,0,.74-.58,1.27-1.58,1.27-.46,0-.89-.11-1.19-.29l.19-.59Z"/>
      <path class="st1" d="M159.83,45.67h.76v5.25h2.52v.64h-3.28v-5.89Z"/>
      <path class="st1" d="M164.81,46.02v1.24s1.13,0,1.13,0v.6s-1.11,0-1.11,0l.02,2.32c0,.53.16.84.59.83.2,0,.36-.03.45-.06l.04.59c-.15.06-.39.11-.69.11-.36,0-.66-.11-.85-.32-.22-.23-.31-.61-.31-1.12l-.02-2.35h-.67s0-.59,0-.59h.67s0-1.04,0-1.04l.76-.21Z"/>
      <path class="st1" d="M170.46,45.2l.04,5.2c0,.38.02.82.04,1.11h-.7s-.04-.74-.04-.74h-.02c-.24.48-.76.85-1.46.86-1.04,0-1.85-.87-1.86-2.17-.02-1.43.86-2.32,1.91-2.33.66,0,1.11.3,1.3.65h.02l-.02-2.57h.78ZM169.71,48.97c0-.1-.01-.23-.04-.33-.12-.5-.55-.9-1.14-.9-.81,0-1.28.72-1.28,1.67,0,.87.44,1.59,1.28,1.58.52,0,1-.35,1.14-.94.03-.11.03-.21.03-.34v-.75Z"/>
    </g>
  </g>
  <path class="st1" d="M54.13,11.38c4.02,1.04,6.14,1.94,9.49,4.49,12.08,9.16,13.66,26.71,3.36,37.85-8.93,9.65-23.4,11.37-33.95,3.68-8.68-6.33-12.51-15.1-10.48-25.76,2.03-10.6,8.23-17.12,18.58-20.13,2.31-.67,4.54-.91,6.88-.91,1.47,0,3.96.25,6.12.79ZM48.1,12.23c-13.53-.03-24.34,10.62-24.37,24.02-.03,13.37,10.72,24.21,24.03,24.25,13.41.03,24.36-10.74,24.45-24.06.09-13.24-10.81-24.18-24.11-24.21Z"/>
  <path class="st3" d="M38.31,51.46c-.09-1.92.83-3.53,2.12-4.94,2.55-2.79,5.19-5.51,7.06-8.84.32-.57.83-.89,1.11-.09,1.41,3.93,4.81,6.23,7.35,9.24,2.31,2.73,2.36,5.99.26,8.83-4.08,5.53-13.41,5.28-16.9-.44-.82-1.36-1.02-2.08-1.01-3.76Z"/>
  <path d="M47.81,13.06c4.07.17,7.12,1.72,9.06,5.06,1.47,2.54,1.03,5.06-.55,7.43-.64.96-1.42,1.82-2.33,2.52-2.31,1.76-3.95,4.01-5.11,6.64-.17.37-.26.93-.78.93-.5,0-.62-.54-.82-.89-1.76-3.12-4.23-5.66-6.66-8.24-5.05-5.36-1.3-11.69,4.6-13.11.92-.22,1.89-.25,2.59-.34Z"/>
  <path class="st4" d="M60.07,27.45c4.04,0,7.24,1.56,9.21,5.19,1.38,2.55.87,5.36-1.55,7.85-2.6,2.69-5.11,5.43-6.98,8.69-.47.82-.92.7-1.33-.06-.43-.8-.89-1.58-1.29-2.4-1.16-2.35-3.3-3.8-5.08-5.59-3.94-3.96-3.3-9.17,1.49-12.04,2.24-1.34,3.22-1.63,5.54-1.65Z"/>
  <path class="st2" d="M35.92,27.47c2.82.09,5.46,1.02,7.52,3.43,2.11,2.46,2.35,5.82.48,8.48-1.17,1.66-2.74,2.93-4.03,4.48-1.36,1.62-2.64,3.28-3.69,5.11-.49.87-.92,1.17-1.42.07-1.31-2.9-3.3-5.2-5.73-7.25-1.65-1.39-2.83-3.15-3.12-5.47-.57-4.55,4.32-8.68,8.89-8.84.29-.01.57,0,1.09,0Z"/>
</svg>